<?xml version="1.0" standalone="no"?>
<!DOCTYPE svg PUBLIC "-//W3C//DTD SVG 20010904//EN"
 "http://www.w3.org/TR/2001/REC-SVG-20010904/DTD/svg10.dtd">
<svg version="1.0" xmlns="http://www.w3.org/2000/svg"
 width="512" height="512" viewBox="0 0 32 32"
 preserveAspectRatio="xMidYMid meet">

<g transform="translate(-0 -0)"
fill="#3452ff" stroke="none">
<path d="M 18.722 0.314 L 2.698 0.314 C 2.408 0.314 2.173 0.548 2.172 0.838 L 2.109 22.859 L 0.85 22.859 C 0.659 22.859 0.505 23.013 0.505 23.204 L 0.544 26.593 C 0.544 26.784 0.698 26.938 0.889 26.938 L 8.842 26.938 C 9.033 26.938 9.187 26.784 9.187 26.593 L 9.148 23.204 C 9.148 23.013 8.994 22.859 8.803 22.859 L 7.335 22.859 L 7.244 5.571 L 18.491 5.571 C 23.61 5.571 26.157 8.006 26.157 13.51 C 26.157 19.014 23.957 21.835 18.838 21.835 L 15.347 21.874 L 15.038 21.591 L 15.019 15.8 C 15.019 15.732 15.189 15.523 15.257 15.523 L 16.847 15.485 L 16.847 16.821 C 16.847 17.011 17.001 17.166 17.192 17.166 L 20.852 17.127 C 21.042 17.127 21.197 16.972 21.197 16.782 L 21.236 9.83 C 21.236 9.639 21.081 9.485 20.891 9.485 L 17.231 9.524 C 17.04 9.524 16.886 9.678 16.886 9.869 L 16.886 11.152 L 11.482 11.191 C 11.124 11.191 10.834 11.481 10.833 11.839 L 10.931 26.391 C 11.034 26.518 11.343 26.938 11.506 26.938 L 18.138 26.931 L 18.722 26.938 C 25.664 26.938 31.312 20.967 31.312 13.626 C 31.312 6.286 25.664 0.314 18.722 0.314 Z"></path>
</g>
</svg>

